<svg width="24" height="25" viewBox="0 0 24 25" fill="none" xmlns="http://www.w3.org/2000/svg">
<path d="M3.74108 11.9409C3.39314 11.9409 3.11108 12.223 3.11108 12.5709C3.11108 12.9189 3.39314 13.2009 3.74108 13.2009H9.28755L7.11618 15.4157C6.85196 15.6852 6.85196 16.1166 7.11618 16.3861C7.38791 16.6633 7.83426 16.6633 8.10599 16.3861L11.16 13.271C11.5413 12.8821 11.5413 12.2597 11.16 11.8709L8.10599 8.75572C7.83426 8.47856 7.38791 8.47856 7.11618 8.75572C6.85196 9.02523 6.85196 9.45661 7.11618 9.72612L9.28755 11.9409H3.74108Z" fill="#712D9C"/>
<path d="M9.41797 20.8963C9.41797 20.5235 9.72018 20.2213 10.093 20.2213H19.065C19.3412 20.2213 19.565 19.9974 19.565 19.7213V5.42129C19.565 5.14515 19.3412 4.92129 19.065 4.92129H10.093C9.72018 4.92129 9.41797 4.61908 9.41797 4.24629C9.41797 3.8735 9.72018 3.57129 10.093 3.57129H18.8886C19.9931 3.57129 20.8886 4.46672 20.8886 5.57129V19.5713C20.8886 20.6759 19.9931 21.5713 18.8886 21.5713H10.093C9.72018 21.5713 9.41797 21.2691 9.41797 20.8963Z" fill="#712D9C"/>
</svg>
